<svg preserveAspectRatio="none" overflow="visible" style="display: block;" width="62.8559" height="31.6049" viewBox="0 0 62.8559 31.6049" fill="none" xmlns="http://www.w3.org/2000/svg">
<g id="Group 1">
<path id="Vector" d="M52.3749 16.7774V16.3712C53.8373 14.5837 55.0966 12.864 56.1528 11.212C57.209 9.56 58.0215 8.05694 58.5902 6.70284C59.1589 5.34873 59.4433 4.22482 59.4433 3.33111C59.4433 2.41031 59.2266 1.67909 58.7933 1.13745C58.3871 0.568726 57.8725 0.284364 57.2496 0.284364C56.5184 0.284364 55.8955 0.555186 55.381 1.09683C54.8664 1.61139 54.4466 2.22074 54.1217 2.92487C53.8238 3.62901 53.6206 4.27898 53.5123 4.87479H53.1061L53.7967 0.324987C54.0946 0.324987 54.3925 0.311446 54.6904 0.284364C55.0154 0.257283 55.3404 0.216659 55.6653 0.162494C55.9632 0.10833 56.2747 0.0677069 56.5997 0.0406251C56.9247 0.0135417 57.2496 0 57.5746 0C59.1183 0 60.3776 0.338527 61.3526 1.01558C62.3546 1.66555 62.8557 2.53218 62.8557 3.61547C62.8557 4.53626 62.5036 5.59247 61.7995 6.78408C61.0953 7.94861 60.1474 9.15377 58.9558 10.3996C57.7913 11.6182 56.4778 12.7692 55.0154 13.8525H59.8089C60.4047 13.8525 60.8787 13.839 61.2307 13.8119C61.5828 13.7577 61.8536 13.5952 62.0432 13.3244C62.2328 13.0536 62.3817 12.5661 62.49 11.862H62.8557L62.0432 16.7774H52.3749Z" fill="white"/>
<path id="Union" d="M26.4453 21.1645V5.24066C26.4453 4.07636 26.0935 3.07425 25.3896 2.2348C24.6855 1.39525 23.7505 0.975035 22.5859 0.975035V0.568785H30.9951V0.975035C29.8307 0.975077 28.8965 1.3953 28.1924 2.2348C27.4884 3.07429 27.1357 4.07625 27.1357 5.24066V17.6303H30.4971C30.7206 16.6823 31.0561 15.8021 31.5029 14.9897C32.3966 13.3649 33.6156 12.106 35.1592 11.2123C36.7299 10.2916 38.5036 9.83055 40.4805 9.8305C42.1325 9.8305 43.5953 10.1561 44.8682 10.8061C46.1678 11.456 47.1968 12.3765 47.9551 13.5678C48.7404 14.7322 49.1875 16.0868 49.2959 17.6303L49.3369 18.2397H35.6875V18.4428C35.6875 21.3135 36.3238 23.6158 37.5967 25.3491C38.8695 27.0551 40.5755 27.9086 42.7148 27.9086C44.0148 27.9086 45.2476 27.5969 46.4121 26.9741C47.6035 26.3242 48.5648 25.4575 49.2959 24.3744L49.6621 24.4955C49.2017 25.8766 48.4836 27.0957 47.5088 28.1518C46.5338 29.208 45.3827 30.0345 44.0557 30.6303C42.7288 31.226 41.2935 31.5238 39.75 31.5239C37.8814 31.5239 36.2153 31.0637 34.7529 30.143C33.3176 29.2222 32.1933 27.9486 31.3809 26.3237C30.5685 24.6718 30.1621 22.7894 30.1621 20.6772C30.1621 19.8225 30.2329 19.0102 30.3721 18.2397H27.1357V31.6049L5.84961 4.4682C5.66009 4.22456 5.44285 3.98137 5.19922 3.73773C4.98258 3.49402 4.7794 3.29084 4.58984 3.12836V26.3647C4.58989 27.5291 4.94242 28.5311 5.64648 29.3705C6.35058 30.21 7.2848 30.6303 8.44922 30.6303V31.0366H0V30.6303C1.19147 30.6303 2.13967 30.21 2.84375 29.3705C3.54771 28.5311 3.89939 27.5151 3.89941 26.3237V2.55902C2.68081 1.63836 1.39404 1.11044 0.0400391 0.975035V0.568785H10.4805L26.4453 21.1645ZM40.0342 10.4399C38.8426 10.4399 37.8537 11.0902 37.0684 12.3901C36.283 13.69 35.8359 15.4368 35.7275 17.6303H43.9746C43.9746 15.4911 43.622 13.758 42.918 12.4311C42.241 11.1041 41.2798 10.44 40.0342 10.4399Z" fill="white"/>
</g>
</svg>
